# xmcd CD database file
#
# Track frame offsets:
#	150
#	13129
#	28950
#	43505
#	60068
#	77495
#	96309
#	110507
#	125227
#	141839
#	159508
#	172663
#	188424
#	205993
#
# Disc length: 2982 seconds
#
# Revision: 0
# Processed by: cddbd v1.5PL3 Copyright (c) Steve Scherf et al.
# Submitted via: Feurio! 1.67 - http://www.feurio.com
#
DISCID=b20ba40e
DTITLE=Mary Roos - Herzen zu verschenken
DYEAR=2003
DGENRE=Jazz
TTITLE0=Hamburg im Regen
TTITLE1=Männer wie Du
TTITLE2=Nur die Liebe läßt uns leben
TTITLE3=Halt mich fest
TTITLE4=Das Lachen Deiner Augen
TTITLE5=Herzen zu verschenken
TTITLE6=Alles was ich will bist Du
TTITLE7=Blaues Meer und warmer Wind
TTITLE8=Ich schweb´ in Liebesgafahr
TTITLE9=Medellin
TTITLE10=Mehr als ein Gefühl
TTITLE11=Rodeo
TTITLE12=Schau Dich nicht um
TTITLE13=Leider lieb´ ich Dich immer noch
EXTD=YEAR: 2003
EXTT0=
EXTT1=
EXTT2=
EXTT3=
EXTT4=
EXTT5=
EXTT6=
EXTT7=
EXTT8=
EXTT9=
EXTT10=
EXTT11=
EXTT12=
EXTT13=
PLAYORDER=
